<?xml version="1.0" encoding="iso-8859-1"?>
<!-- Uploaded to: SVG Repo, www.svgrepo.com, Generator: SVG Repo Mixer Tools -->
<svg height="800px" width="800px" version="1.1" id="Layer_1" xmlns="http://www.w3.org/2000/svg" xmlns:xlink="http://www.w3.org/1999/xlink" 
	 viewBox="0 0 512 512" xml:space="preserve">
<g>
	<path style="fill:#AEB6BD;" d="M394.666,227.427h-42.163c-8.836,0-16-7.164-16-16c0-8.836,7.164-16,16-16h42.163
		c8.836,0,16,7.164,16,16C410.666,220.263,403.502,227.427,394.666,227.427z"/>
	<path style="fill:#AEB6BD;" d="M443.232,426.575c-8.836,0-16-7.164-16-16v-33.968c0-8.836,7.164-16,16-16s16,7.164,16,16v33.968
		C459.232,419.411,452.068,426.575,443.232,426.575z"/>
	<path style="fill:#AEB6BD;" d="M394.666,426.575c-8.836,0-16-7.164-16-16v-33.968c0-8.836,7.164-16,16-16c8.836,0,16,7.164,16,16
		v33.968C410.666,419.411,403.502,426.575,394.666,426.575z"/>
</g>
<path style="fill:#CDD6E0;" d="M443.232,392.607h-48.566c-8.836,0-16-7.164-16-16v-165.18c0-8.836,7.164-16,16-16h0.609
	c35.267,0,63.957,28.691,63.957,63.956v117.222C459.232,385.444,452.068,392.607,443.232,392.607z"/>
<path style="fill:#F1543F;" d="M362.278,104.046c-8.836,0-16-7.164-16-16V16c0-8.836,7.164-16,16-16c8.836,0,16,7.164,16,16v72.046
	C378.278,96.883,371.115,104.046,362.278,104.046z"/>
<g>
	<path style="fill:#AEB6BD;" d="M362.278,151.643h-44.032c-8.836,0-16-7.164-16-16V88.046c0-8.836,7.164-16,16-16h44.032
		c8.836,0,16,7.164,16,16v47.597C378.278,144.479,371.115,151.643,362.278,151.643z"/>
	<path style="fill:#AEB6BD;" d="M352.502,462.245H293.03c-8.836,0-16-7.164-16-16v-99.508c0-8.836,7.164-16,16-16h59.472
		c8.836,0,16,7.164,16,16v99.508C368.502,455.083,361.339,462.245,352.502,462.245z"/>
</g>
<path style="fill:#9BA2A8;" d="M364.146,512h-82.758c-8.836,0-16-7.164-16-16v-49.755c0-8.836,7.164-16,16-16h82.758
	c8.836,0,16,7.164,16,16V496C380.146,504.836,372.982,512,364.146,512z"/>
<path style="fill:#FF7058;" d="M149.722,104.046c-8.836,0-16-7.164-16-16V16c0-8.836,7.164-16,16-16c8.836,0,16,7.164,16,16v72.046
	C165.722,96.883,158.558,104.046,149.722,104.046z"/>
<g>
	<path style="fill:#CDD6E0;" d="M193.755,151.643h-44.032c-8.836,0-16-7.164-16-16V88.046c0-8.836,7.164-16,16-16h44.032
		c8.836,0,16,7.164,16,16v47.597C209.755,144.479,202.591,151.643,193.755,151.643z"/>
	<path style="fill:#CDD6E0;" d="M218.97,462.245h-59.472c-8.836,0-16-7.164-16-16v-99.508c0-8.836,7.164-16,16-16h59.472
		c8.836,0,16,7.164,16,16v99.508C234.97,455.083,227.806,462.245,218.97,462.245z"/>
	<path style="fill:#CDD6E0;" d="M256,227.427c-8.836,0-16-7.164-16-16v-45.627c0-8.836,7.164-16,16-16c8.836,0,16,7.164,16,16
		v45.627C272,220.265,264.836,227.427,256,227.427z"/>
</g>
<path style="fill:#AEB6BD;" d="M256,149.801v77.627c8.836,0,16-7.164,16-16v-45.627C272,156.964,264.836,149.801,256,149.801z"/>
<path style="fill:#CDD6E0;" d="M159.498,227.427h-42.163c-8.836,0-16-7.164-16-16c0-8.836,7.164-16,16-16h42.163
	c8.836,0,16,7.164,16,16C175.498,220.263,168.334,227.427,159.498,227.427z"/>
<path style="fill:#F2F2F2;" d="M318.245,181.801H193.755c-8.836,0-16-7.164-16-16V57.888c0-8.836,7.164-16,16-16h124.492
	c8.836,0,16,7.164,16,16v107.913C334.245,174.638,327.083,181.801,318.245,181.801z"/>
<path style="fill:#CDD6E0;" d="M318.245,41.888H256v139.913h62.245c8.836,0,16-7.164,16-16V57.888
	C334.245,49.052,327.083,41.888,318.245,41.888z"/>
<path style="fill:#F2F2F2;" d="M352.502,362.738H159.498c-8.836,0-16-7.164-16-16V211.427c0-8.836,7.164-16,16-16h193.004
	c8.836,0,16,7.164,16,16v135.311C368.502,355.574,361.339,362.738,352.502,362.738z"/>
<g>
	<path style="fill:#CDD6E0;" d="M352.502,195.427H256v167.311h96.502c8.836,0,16-7.164,16-16V211.427
		C368.502,202.591,361.339,195.427,352.502,195.427z"/>
	<path style="fill:#CDD6E0;" d="M68.768,426.575c-8.836,0-16-7.164-16-16v-33.968c0-8.836,7.164-16,16-16s16,7.164,16,16v33.968
		C84.768,419.411,77.604,426.575,68.768,426.575z"/>
	<path style="fill:#CDD6E0;" d="M117.334,426.575c-8.836,0-16-7.164-16-16v-33.968c0-8.836,7.164-16,16-16s16,7.164,16,16v33.968
		C133.334,419.411,126.171,426.575,117.334,426.575z"/>
</g>
<g>
	<path style="fill:#FF7058;" d="M255.997,295.083c-8.836,0-16-7.164-16-16v-23.173c0-8.836,7.164-16,16-16c8.836,0,16,7.164,16,16
		v23.173C271.997,287.919,264.833,295.083,255.997,295.083z"/>
	<path style="fill:#FF7058;" d="M208.347,295.083c-8.836,0-16-7.164-16-16v-23.173c0-8.836,7.164-16,16-16c8.836,0,16,7.164,16,16
		v23.173C224.347,287.919,217.183,295.083,208.347,295.083z"/>
</g>
<path style="fill:#F2F2F2;" d="M117.334,392.607H68.768c-8.836,0-16-7.164-16-16V259.385c0-35.266,28.69-63.956,63.957-63.956h0.609
	c8.836,0,16,7.164,16,16v165.18C133.334,385.444,126.171,392.607,117.334,392.607z"/>
<path style="fill:#AEB6BD;" d="M230.612,512h-82.758c-8.836,0-16-7.164-16-16v-49.755c0-8.836,7.164-16,16-16h82.758
	c8.836,0,16,7.164,16,16V496C246.612,504.836,239.449,512,230.612,512z"/>
<g>
	<path style="fill:#F1543F;" d="M256,239.91v55.172c8.835-0.002,15.997-7.165,15.997-16v-23.173
		C271.997,247.074,264.835,239.911,256,239.91z"/>
	<path style="fill:#F1543F;" d="M301.506,295.083c-8.836,0-16-7.164-16-16v-23.173c0-8.836,7.164-16,16-16s16,7.164,16,16v23.173
		C317.506,287.919,310.342,295.083,301.506,295.083z"/>
</g>
</svg>